<svg xmlns="http://www.w3.org/2000/svg" viewBox="0 0 100 100"><circle cx="50" cy="50" r="48" fill="#e9eefb"/><ellipse cx="50" cy="88" rx="30" ry="5" fill="#2b2a3d" opacity=".12"/> <rect x="22" y="22" width="56" height="64" rx="8" fill="#dfe6f0" stroke="#2b2a3d" stroke-width="3" stroke-linejoin="round" stroke-linecap="round"/> <rect x="22" y="22" width="56" height="14" rx="6" fill="#b9c6d8" stroke="#2b2a3d" stroke-width="3" stroke-linejoin="round" stroke-linecap="round"/> <circle cx="66" cy="29" r="3" fill="#3cbf5b"/><rect x="30" y="27" width="20" height="4" rx="2" fill="#8f9fb6"/> <ellipse cx="34" cy="16" rx="11" ry="11" fill="#fff" stroke="#2b2a3d" stroke-width="3" stroke-linejoin="round" stroke-linecap="round"/><ellipse cx="34" cy="16" rx="6" ry="6" fill="none" stroke="#7cc6f2" stroke-width="2.5"/> <ellipse cx="58" cy="15" rx="9" ry="9" fill="#fff" stroke="#2b2a3d" stroke-width="3" stroke-linejoin="round" stroke-linecap="round"/><ellipse cx="58" cy="15" rx="4.5" ry="4.5" fill="none" stroke="#ff8a1f" stroke-width="2.5"/> <ellipse cx="41.0" cy="56.0" rx="3.2" ry="3.8" fill="#2b2a3d"/><circle cx="42.1" cy="54.6" r="1.2" fill="#fff"/><ellipse cx="59.0" cy="56.0" rx="3.2" ry="3.8" fill="#2b2a3d"/><circle cx="60.1" cy="54.6" r="1.2" fill="#fff"/><ellipse cx="37.0" cy="62.0" rx="3.0" ry="2.0" fill="#ff7a9a" opacity=".55"/><ellipse cx="63.0" cy="62.0" rx="3.0" ry="2.0" fill="#ff7a9a" opacity=".55"/><path d="M43.5 61.0 Q50.0 71.0 56.5 61.0 Z" fill="#c2324d" stroke="#2b2a3d" stroke-width="2.2" stroke-linejoin="round" stroke-linecap="round"/><path d="M47.1 65.6 Q50.0 63.4 52.9 65.6 Q50.0 68.5 47.1 65.6 Z" fill="#ff8fa8"/> <circle cx="80" cy="56" r="5" fill="#bfe9fb" stroke="#2b2a3d" stroke-width="2" stroke-linejoin="round" stroke-linecap="round"/><circle cx="86" cy="44" r="3.5" fill="#bfe9fb" stroke="#2b2a3d" stroke-width="2" stroke-linejoin="round" stroke-linecap="round"/> <path d="M14 34.4 Q14.96 39.04 19.6 40 Q14.96 40.96 14 45.6 Q13.04 40.96 8.399999999999999 40 Q13.04 39.04 14 34.4 Z" fill="#ffd23f" stroke="#2b2a3d" stroke-width="1.6" stroke-linejoin="round"/></svg>